<svg width="503.65998535156245px" height="126.92000732421874px" xmlns="http://www.w3.org/2000/svg" viewBox="-1.8299926757812273 11.539996337890628 503.65998535156245 126.92000732421874" style="background: rgba(255, 255, 255, 0) none repeat scroll 0% 0%;" preserveAspectRatio="xMidYMid"><defs><filter id="editing-vintage" x="-100%" y="-100%" width="300%" height="300%"><feConvolveMatrix in="SourceGraphic" result="extrude" order="9,9" divisor="1" kernelMatrix="1,0,0,0,0,0,0,0,0,0,1,0,0,0,0,0,0,0,0,0,1,0,0,0,0,0,0,0,0,0,1,0,0,0,0,0,0,0,0,0,1,0,0,0,0,0,0,0,0,0,1,0,0,0,0,0,0,0,0,0,1,0,0,0,0,0,0,0,0,0,1,0,0,0,0,0,0,0,0,0,1"> </feConvolveMatrix><feFlood flood-color="#900" result="flood-extrude"></feFlood><feComposite operator="in" in="flood-extrude" in2="extrude" result="extrude-color"></feComposite><feOffset dx="5" dy="5" in="extrude-color" result="extrude-offset"></feOffset><feColorMatrix in="SourceGraphic" result="stroke" type="matrix" values="0 0 0 0 0 0 0 0 0 0 0 0 0 0 0 0 1 0 0 0 "></feColorMatrix><feColorMatrix in="SourceGraphic" result="fill" type="matrix" values="0 0 0 0 0 0 0 0 0 0 0 0 0 0 0 1 0 0 1 0 "></feColorMatrix><feConvolveMatrix in="stroke" result="inner-shadow" order="5,5" divisor="1" kernelMatrix="1 0 0 0 0 0 1 0 0 0 0 0 1 0 0 0 0 0 1 0 0 0 0 0 1 "></feConvolveMatrix><feOffset dx="1" dy="1" in="inner-shadow" result="offset"></feOffset><feComposite operator="in" in="offset" in2="SourceAlpha" result="comp"></feComposite><feFlood flood-color="#000" result="flood3"></feFlood><feComposite operator="in" in="flood3" in2="comp" result="comp2"></feComposite><feColorMatrix in="comp2" result="comp3" type="matrix" values="1 0 0 0 0 0 1 0 0 0 0 0 1 0 0 0 0 0 0.5 0 "></feColorMatrix><feFlood flood-color="#f00" result="flood1"></feFlood><feComposite operator="in" in="flood1" in2="fill" result="fill2"></feComposite><feFlood flood-color="#fff" result="flood2"></feFlood><feComposite operator="in" in="flood2" in2="stroke" result="stroke2"></feComposite><feMerge result="obj"><feMergeNode in="extrude-offset"></feMergeNode><feMergeNode in="fill2"></feMergeNode><feMergeNode in="comp3"></feMergeNode></feMerge><feConvolveMatrix in="SourceAlpha" result="shadow" order="9,9" divisor="1" kernelMatrix="1,0,0,0,0,0,0,0,0,0,1,0,0,0,0,0,0,0,0,0,1,0,0,0,0,0,0,0,0,0,1,0,0,0,0,0,0,0,0,0,1,0,0,0,0,0,0,0,0,0,1,0,0,0,0,0,0,0,0,0,1,0,0,0,0,0,0,0,0,0,1,0,0,0,0,0,0,0,0,0,1"></feConvolveMatrix><feOffset dx="15" dy="15" in="shadow" result="shadow-offset"></feOffset><feFlood flood-color="#444444" result="flood-shadow"></feFlood><feComposite operator="in" in="flood-shadow" in2="shadow-offset" result="shadow-color"></feComposite><feMerge><feMergeNode in="shadow-color"></feMergeNode><feMergeNode in="obj"></feMergeNode></feMerge></filter></defs><g transform="translate(-9,-9)"><g filter="url(#editing-vintage)"><g transform="translate(75.76382261514664, 99)"><path d="M6.53 0L-0.83 0L10.75-42.24L24.13-42.24L27.07-18.11L38.98-42.24L50.18-42.24L51.33-10.62L51.33-10.62Q51.58-4.35 54.66-2.43L54.66-2.43L54.66-2.43Q53.95-1.15 51.90 0.06L51.90 0.06L51.90 0.06Q49.86 1.28 47.14 1.28L47.14 1.28L47.14 1.28Q44.42 1.28 42.82 0.51L42.82 0.51L42.82 0.51Q41.22-0.26 40.32-1.54L40.32-1.54L40.32-1.54Q38.72-3.84 38.72-8.26L38.72-8.26L38.72-28.03L26.11 0L18.18 0L13.70-28.74L6.53 0ZM71.36 1.28L71.36 1.28L71.36 1.28Q57.28 1.28 57.28-11.97L57.28-11.97L57.28-11.97Q57.28-21.38 62.46-27.46L62.46-27.46L62.46-27.46Q67.97-33.92 77.50-33.92L77.50-33.92L77.50-33.92Q84.42-33.92 87.94-30.72L87.94-30.72L87.94-30.72Q91.46-27.52 91.46-20.80L91.46-20.80L91.46-20.80Q91.46-10.56 85.95-4.61L85.95-4.61L85.95-4.61Q80.58 1.28 71.36 1.28ZM73.02-26.56L73.02-26.56L73.02-26.56Q72.26-24.83 71.65-22.24L71.65-22.24L71.65-22.24Q71.04-19.65 70.27-15.55L70.27-15.55L70.27-15.55Q69.50-11.46 69.50-6.40L69.50-6.40L69.50-6.40Q69.50-4.74 70.05-3.65L70.05-3.65L70.05-3.65Q70.59-2.56 72.06-2.56L72.06-2.56L72.06-2.56Q73.54-2.56 74.46-3.26L74.46-3.26L74.46-3.26Q75.39-3.97 76.10-5.63L76.10-5.63L76.10-5.63Q77.38-8.58 78.40-14.05L78.40-14.05L78.40-14.05Q79.42-19.52 79.52-21.89L79.52-21.89L79.52-21.89Q79.62-24.26 79.62-26.02L79.62-26.02L79.62-26.02Q79.62-27.78 79.10-28.93L79.10-28.93L79.10-28.93Q78.59-30.08 77.15-30.08L77.15-30.08L77.15-30.08Q75.71-30.08 74.75-29.18L74.75-29.18L74.75-29.18Q73.79-28.29 73.02-26.56ZM118.46-31.55L118.46-31.55L118.46-31.55Q120.58-33.92 124.22-33.92L124.22-33.92L124.22-33.92Q126.46-33.92 128.19-32.70L128.19-32.70L128.19-32.70Q129.92-31.49 129.92-29.22L129.92-29.22L129.92-29.22Q129.92-26.94 129.22-24.51L129.22-24.51L129.22-24.51Q128.51-22.08 127.42-19.58L127.42-19.58L127.42-19.58Q125.25-14.72 122.24-10.69L122.24-10.69L122.24-10.69Q118.02-4.86 113.95-1.79L113.95-1.79L113.95-1.79Q109.89 1.28 105.47 1.28L105.47 1.28L105.47 1.28Q101.89 1.28 99.71 0.45L99.71 0.45L99.71 0.45Q99.33-12.99 98.85-17.79L98.85-17.79L98.85-17.79Q98.37-22.59 97.98-25.22L97.98-25.22L97.98-25.22Q97.34-30.34 95.42-31.55L95.42-31.55L95.42-31.55Q96.90-32.83 98.34-33.38L98.34-33.38L98.34-33.38Q99.78-33.92 102.75-33.92L102.75-33.92L102.75-33.92Q105.73-33.92 107.84-31.58L107.84-31.58L107.84-31.58Q109.95-29.25 110.37-25.12L110.37-25.12L110.37-25.12Q110.78-20.99 110.78-16L110.78-16L110.78-16Q110.78-11.01 110.40-4.99L110.40-4.99L110.40-4.99Q112.38-6.40 114.50-10.69L114.50-10.69L114.50-10.69Q117.38-16.64 118.40-23.81L118.40-23.81L118.40-23.81Q118.72-25.98 118.72-28.29L118.72-28.29L118.72-28.29Q118.72-30.59 118.46-31.55ZM147.01-3.52L147.01-3.52L147.01-3.52Q145.02 1.28 138.69 1.28L138.69 1.28L138.69 1.28Q135.42 1.28 133.38-0.96L133.38-0.96L133.38-0.96Q131.65-2.94 131.65-4.93L131.65-4.93L131.65-4.93Q131.65-10.11 134.02-20.22L134.02-20.22L136.38-32.64L149.38-33.92L145.47-13.70L145.47-13.70Q144.38-8.96 144.38-7.30L144.38-7.30L144.38-7.30Q144.38-3.65 147.01-3.52ZM137.54-41.54L137.54-41.54L137.54-41.54Q137.54-44.03 139.62-45.38L139.62-45.38L139.62-45.38Q141.70-46.72 144.70-46.72L144.70-46.72L144.70-46.72Q147.71-46.72 149.54-45.38L149.54-45.38L149.54-45.38Q151.36-44.03 151.36-41.54L151.36-41.54L151.36-41.54Q151.36-39.04 149.34-37.76L149.34-37.76L149.34-37.76Q147.33-36.48 144.32-36.48L144.32-36.48L144.32-36.48Q141.31-36.48 139.42-37.76L139.42-37.76L139.42-37.76Q137.54-39.04 137.54-41.54ZM178.37-10.82L178.37-10.82L178.37-10.82Q179.97-9.73 179.97-7.33L179.97-7.33L179.97-7.33Q179.97-4.93 178.75-3.39L178.75-3.39L178.75-3.39Q177.54-1.86 175.55-0.83L175.55-0.83L175.55-0.83Q171.46 1.28 167.04 1.28L167.04 1.28L167.04 1.28Q162.62 1.28 160.03 0.32L160.03 0.32L160.03 0.32Q157.44-0.64 155.71-2.43L155.71-2.43L155.71-2.43Q152.32-5.82 152.32-12.03L152.32-12.03L152.32-12.03Q152.32-21.70 157.57-27.58L157.57-27.58L157.57-27.58Q163.20-33.92 172.99-33.92L172.99-33.92L172.99-33.92Q179.07-33.92 182.08-31.36L182.08-31.36L182.08-31.36Q184.32-29.44 184.32-26.30L184.32-26.30L184.32-26.30Q184.32-15.04 164.86-15.04L164.86-15.04L164.86-15.04Q164.61-13.38 164.61-11.97L164.61-11.97L164.61-11.97Q164.61-9.02 165.92-7.90L165.92-7.90L165.92-7.90Q167.23-6.78 169.66-6.78L169.66-6.78L169.66-6.78Q172.10-6.78 174.69-7.90L174.69-7.90L174.69-7.90Q177.28-9.02 178.37-10.82ZM165.31-17.79L165.31-17.79L165.31-17.79Q169.86-17.79 172.48-20.61L172.48-20.61L172.48-20.61Q175.10-23.30 175.10-27.58L175.10-27.58L175.10-27.58Q175.10-29.06 174.56-29.86L174.56-29.86L174.56-29.86Q174.02-30.66 172.93-30.66L172.93-30.66L172.93-30.66Q171.84-30.66 170.91-30.24L170.91-30.24L170.91-30.24Q169.98-29.82 169.02-28.42L169.02-28.42L169.02-28.42Q166.66-25.22 165.31-17.79ZM199.55 0L185.92 0L193.22-38.91L193.92-42.24L207.62-42.24L199.55 0ZM225.54-3.78L225.54-3.78L225.54-3.78Q223.81 1.28 217.15 1.28L217.15 1.28L217.15 1.28Q212.22 1.28 208.83-4.61L208.83-4.61L208.83-4.61Q205.38-10.50 204.74-20.10L204.74-20.10L204.74-20.10Q211.78-32.96 216.64-38.27L216.64-38.27L216.64-38.27Q221.31-43.33 226.18-43.33L226.18-43.33L226.18-43.33Q228.80-43.33 230.69-41.92L230.69-41.92L230.69-41.92Q232.58-40.51 233.02-38.27L233.02-38.27L233.02-38.27Q230.85-37.38 229.82-36.67L229.82-36.67L229.82-36.67Q227.26-34.75 223.81-30.46L223.81-30.46L217.98-23.49L217.98-23.49Q216.58-21.82 216.00-21.06L216.00-21.06L216.00-21.06Q216.96-15.68 219.84-10.37L219.84-10.37L219.84-10.37Q222.59-5.31 225.54-3.78ZM230.53-15.62L230.53-15.62L230.53-15.62Q230.53-27.71 236.80-35.33L236.80-35.33L236.80-35.33Q243.46-43.58 255.04-43.58L255.04-43.58L255.04-43.58Q263.42-43.58 267.65-39.52L267.65-39.52L267.65-39.52Q271.87-35.46 271.87-26.88L271.87-26.88L271.87-26.88Q271.87-13.82 265.22-6.21L265.22-6.21L265.22-6.21Q258.62 1.28 247.55 1.28L247.55 1.28L247.55 1.28Q238.91 1.28 234.72-3.04L234.72-3.04L234.72-3.04Q230.53-7.36 230.53-15.62ZM247.36-28.86L247.36-28.86L247.36-28.86Q244.48-17.34 244.48-8.26L244.48-8.26L244.48-8.26Q244.48-6.08 245.22-4.67L245.22-4.67L245.22-4.67Q245.95-3.26 247.90-3.26L247.90-3.26L247.90-3.26Q249.86-3.26 251.07-4.19L251.07-4.19L251.07-4.19Q252.29-5.12 253.25-7.23L253.25-7.23L253.25-7.23Q254.78-10.69 256.22-18.02L256.22-18.02L256.22-18.02Q257.66-25.34 257.79-28.38L257.79-28.38L257.79-28.38Q257.92-31.42 257.92-33.73L257.92-33.73L257.92-33.73Q257.92-36.03 257.22-37.50L257.22-37.50L257.22-37.50Q256.51-38.98 254.62-38.98L254.62-38.98L254.62-38.98Q252.74-38.98 251.46-37.82L251.46-37.82L251.46-37.82Q249.09-35.65 247.36-28.86ZM275.97-15.62L275.97-15.62L275.97-15.62Q275.97-27.71 282.24-35.33L282.24-35.33L282.24-35.33Q288.90-43.58 300.48-43.58L300.48-43.58L300.48-43.58Q308.86-43.58 313.09-39.52L313.09-39.52L313.09-39.52Q317.31-35.46 317.31-26.88L317.31-26.88L317.31-26.88Q317.31-13.82 310.66-6.21L310.66-6.21L310.66-6.21Q304.06 1.28 292.99 1.28L292.99 1.28L292.99 1.28Q284.35 1.28 280.16-3.04L280.16-3.04L280.16-3.04Q275.97-7.36 275.97-15.62ZM292.80-28.86L292.80-28.86L292.80-28.86Q289.92-17.34 289.92-8.26L289.92-8.26L289.92-8.26Q289.92-6.08 290.66-4.67L290.66-4.67L290.66-4.67Q291.39-3.26 293.34-3.26L293.34-3.26L293.34-3.26Q295.30-3.26 296.51-4.19L296.51-4.19L296.51-4.19Q297.73-5.12 298.69-7.23L298.69-7.23L298.69-7.23Q300.22-10.69 301.66-18.02L301.66-18.02L301.66-18.02Q303.10-25.34 303.23-28.38L303.23-28.38L303.23-28.38Q303.36-31.42 303.36-33.73L303.36-33.73L303.36-33.73Q303.36-36.03 302.66-37.50L302.66-37.50L302.66-37.50Q301.95-38.98 300.06-38.98L300.06-38.98L300.06-38.98Q298.18-38.98 296.90-37.82L296.90-37.82L296.90-37.82Q294.53-35.65 292.80-28.86ZM347.20-9.86L347.20-9.86L347.20-9.86Q348.42-8.32 348.42-5.34L348.42-5.34L348.42-5.34Q348.42-2.37 346.14-0.54L346.14-0.54L346.14-0.54Q343.87 1.28 339.90 1.28L339.90 1.28L339.90 1.28Q337.60 1.28 334.02 0.77L334.02 0.77L334.02 0.77Q326.98-0.32 324.96-0.32L324.96-0.32L324.96-0.32Q322.94-0.32 322.11-0.22L322.11-0.22L322.11-0.22Q321.28-0.13 319.94 0L319.94 0L327.68-42.24L341.70-42.24L335.30-7.04L335.30-7.04Q336.13-6.91 336.90-6.91L336.90-6.91L338.50-6.91L338.50-6.91Q343.87-6.91 347.20-9.86Z" fill="#f00" stroke="#0f0" stroke-width="1.8"></path></g></g><g><g transform="translate(75.70498472452164, 99)"><path d="M6.53 0L-0.83 0L10.75-42.24L24.13-42.24L27.07-18.11L38.98-42.24L50.18-42.24L51.33-10.62L51.33-10.62Q51.58-4.35 54.66-2.43L54.66-2.43L54.66-2.43Q53.95-1.15 51.90 0.06L51.90 0.06L51.90 0.06Q49.86 1.28 47.14 1.28L47.14 1.28L47.14 1.28Q44.42 1.28 42.82 0.51L42.82 0.51L42.82 0.51Q41.22-0.26 40.32-1.54L40.32-1.54L40.32-1.54Q38.72-3.84 38.72-8.26L38.72-8.26L38.72-28.03L26.11 0L18.18 0L13.70-28.74L6.53 0ZM71.36 1.28L71.36 1.28L71.36 1.28Q57.28 1.28 57.28-11.97L57.28-11.97L57.28-11.97Q57.28-21.38 62.46-27.46L62.46-27.46L62.46-27.46Q67.97-33.92 77.50-33.92L77.50-33.92L77.50-33.92Q84.42-33.92 87.94-30.72L87.94-30.72L87.94-30.72Q91.46-27.52 91.46-20.80L91.46-20.80L91.46-20.80Q91.46-10.56 85.95-4.61L85.95-4.61L85.95-4.61Q80.58 1.28 71.36 1.28ZM73.02-26.56L73.02-26.56L73.02-26.56Q72.26-24.83 71.65-22.24L71.65-22.24L71.65-22.24Q71.04-19.65 70.27-15.55L70.27-15.55L70.27-15.55Q69.50-11.46 69.50-6.40L69.50-6.40L69.50-6.40Q69.50-4.74 70.05-3.65L70.05-3.65L70.05-3.65Q70.59-2.56 72.06-2.56L72.06-2.56L72.06-2.56Q73.54-2.56 74.46-3.26L74.46-3.26L74.46-3.26Q75.39-3.97 76.10-5.63L76.10-5.63L76.10-5.63Q77.38-8.58 78.40-14.05L78.40-14.05L78.40-14.05Q79.42-19.52 79.52-21.89L79.52-21.89L79.52-21.89Q79.62-24.26 79.62-26.02L79.62-26.02L79.62-26.02Q79.62-27.78 79.10-28.93L79.10-28.93L79.10-28.93Q78.59-30.08 77.15-30.08L77.15-30.08L77.15-30.08Q75.71-30.08 74.75-29.18L74.75-29.18L74.75-29.18Q73.79-28.29 73.02-26.56ZM118.46-31.55L118.46-31.55L118.46-31.55Q120.58-33.92 124.22-33.92L124.22-33.92L124.22-33.92Q126.46-33.92 128.19-32.70L128.19-32.70L128.19-32.70Q129.92-31.49 129.92-29.22L129.92-29.22L129.92-29.22Q129.92-26.94 129.22-24.51L129.22-24.51L129.22-24.51Q128.51-22.08 127.42-19.58L127.42-19.58L127.42-19.58Q125.25-14.72 122.24-10.69L122.24-10.69L122.24-10.69Q118.02-4.86 113.95-1.79L113.95-1.79L113.95-1.79Q109.89 1.28 105.47 1.28L105.47 1.28L105.47 1.28Q101.89 1.28 99.71 0.45L99.71 0.45L99.71 0.45Q99.33-12.99 98.85-17.79L98.85-17.79L98.85-17.79Q98.37-22.59 97.98-25.22L97.98-25.22L97.98-25.22Q97.34-30.34 95.42-31.55L95.42-31.55L95.42-31.55Q96.90-32.83 98.34-33.38L98.34-33.38L98.34-33.38Q99.78-33.92 102.75-33.92L102.75-33.92L102.75-33.92Q105.73-33.92 107.84-31.58L107.84-31.58L107.84-31.58Q109.95-29.25 110.37-25.12L110.37-25.12L110.37-25.12Q110.78-20.99 110.78-16L110.78-16L110.78-16Q110.78-11.01 110.40-4.99L110.40-4.99L110.40-4.99Q112.38-6.40 114.50-10.69L114.50-10.69L114.50-10.69Q117.38-16.64 118.40-23.81L118.40-23.81L118.40-23.81Q118.72-25.98 118.72-28.29L118.72-28.29L118.72-28.29Q118.72-30.59 118.46-31.55ZM147.01-3.52L147.01-3.52L147.01-3.52Q145.02 1.28 138.69 1.28L138.69 1.28L138.69 1.28Q135.42 1.28 133.38-0.96L133.38-0.96L133.38-0.96Q131.65-2.94 131.65-4.93L131.65-4.93L131.65-4.93Q131.65-10.11 134.02-20.22L134.02-20.22L136.38-32.64L149.38-33.92L145.47-13.70L145.47-13.70Q144.38-8.96 144.38-7.30L144.38-7.30L144.38-7.30Q144.38-3.65 147.01-3.52ZM137.54-41.54L137.54-41.54L137.54-41.54Q137.54-44.03 139.62-45.38L139.62-45.38L139.62-45.38Q141.70-46.72 144.70-46.72L144.70-46.72L144.70-46.72Q147.71-46.72 149.54-45.38L149.54-45.38L149.54-45.38Q151.36-44.03 151.36-41.54L151.36-41.54L151.36-41.54Q151.36-39.04 149.34-37.76L149.34-37.76L149.34-37.76Q147.33-36.48 144.32-36.48L144.32-36.48L144.32-36.48Q141.31-36.48 139.42-37.76L139.42-37.76L139.42-37.76Q137.54-39.04 137.54-41.54ZM178.37-10.82L178.37-10.82L178.37-10.82Q179.97-9.73 179.97-7.33L179.97-7.33L179.97-7.33Q179.97-4.93 178.75-3.39L178.75-3.39L178.75-3.39Q177.54-1.86 175.55-0.83L175.55-0.83L175.55-0.83Q171.46 1.28 167.04 1.28L167.04 1.28L167.04 1.28Q162.62 1.28 160.03 0.32L160.03 0.32L160.03 0.32Q157.44-0.64 155.71-2.43L155.71-2.43L155.71-2.43Q152.32-5.82 152.32-12.03L152.32-12.03L152.32-12.03Q152.32-21.70 157.57-27.58L157.57-27.58L157.57-27.58Q163.20-33.92 172.99-33.92L172.99-33.92L172.99-33.92Q179.07-33.92 182.08-31.36L182.08-31.36L182.08-31.36Q184.32-29.44 184.32-26.30L184.32-26.30L184.32-26.30Q184.32-15.04 164.86-15.04L164.86-15.04L164.86-15.04Q164.61-13.38 164.61-11.97L164.61-11.97L164.61-11.97Q164.61-9.02 165.92-7.90L165.92-7.90L165.92-7.90Q167.23-6.78 169.66-6.78L169.66-6.78L169.66-6.78Q172.10-6.78 174.69-7.90L174.69-7.90L174.69-7.90Q177.28-9.02 178.37-10.82ZM165.31-17.79L165.31-17.79L165.31-17.79Q169.86-17.79 172.48-20.61L172.48-20.61L172.48-20.61Q175.10-23.30 175.10-27.58L175.10-27.58L175.10-27.58Q175.10-29.06 174.56-29.86L174.56-29.86L174.56-29.86Q174.02-30.66 172.93-30.66L172.93-30.66L172.93-30.66Q171.84-30.66 170.91-30.24L170.91-30.24L170.91-30.24Q169.98-29.82 169.02-28.42L169.02-28.42L169.02-28.42Q166.66-25.22 165.31-17.79ZM199.55 0L185.92 0L193.22-38.91L193.92-42.24L207.62-42.24L199.55 0ZM225.54-3.78L225.54-3.78L225.54-3.78Q223.81 1.28 217.15 1.28L217.15 1.28L217.15 1.28Q212.22 1.28 208.83-4.61L208.83-4.61L208.83-4.61Q205.38-10.50 204.74-20.10L204.74-20.10L204.74-20.10Q211.78-32.96 216.64-38.27L216.64-38.27L216.64-38.27Q221.31-43.33 226.18-43.33L226.18-43.33L226.18-43.33Q228.80-43.33 230.69-41.92L230.69-41.92L230.69-41.92Q232.58-40.51 233.02-38.27L233.02-38.27L233.02-38.27Q230.85-37.38 229.82-36.67L229.82-36.67L229.82-36.67Q227.26-34.75 223.81-30.46L223.81-30.46L217.98-23.49L217.98-23.49Q216.58-21.82 216.00-21.06L216.00-21.06L216.00-21.06Q216.96-15.68 219.84-10.37L219.84-10.37L219.84-10.37Q222.59-5.31 225.54-3.78ZM230.53-15.62L230.53-15.62L230.53-15.62Q230.53-27.71 236.80-35.33L236.80-35.33L236.80-35.33Q243.46-43.58 255.04-43.58L255.04-43.58L255.04-43.58Q263.42-43.58 267.65-39.52L267.65-39.52L267.65-39.52Q271.87-35.46 271.87-26.88L271.87-26.88L271.87-26.88Q271.87-13.82 265.22-6.21L265.22-6.21L265.22-6.21Q258.62 1.28 247.55 1.28L247.55 1.28L247.55 1.28Q238.91 1.28 234.72-3.04L234.72-3.04L234.72-3.04Q230.53-7.36 230.53-15.62ZM247.36-28.86L247.36-28.86L247.36-28.86Q244.48-17.34 244.48-8.26L244.48-8.26L244.48-8.26Q244.48-6.08 245.22-4.67L245.22-4.67L245.22-4.67Q245.95-3.26 247.90-3.26L247.90-3.26L247.90-3.26Q249.86-3.26 251.07-4.19L251.07-4.19L251.07-4.19Q252.29-5.12 253.25-7.23L253.25-7.23L253.25-7.23Q254.78-10.69 256.22-18.02L256.22-18.02L256.22-18.02Q257.66-25.34 257.79-28.38L257.79-28.38L257.79-28.38Q257.92-31.42 257.92-33.73L257.92-33.73L257.92-33.73Q257.92-36.03 257.22-37.50L257.22-37.50L257.22-37.50Q256.51-38.98 254.62-38.98L254.62-38.98L254.62-38.98Q252.74-38.98 251.46-37.82L251.46-37.82L251.46-37.82Q249.09-35.65 247.36-28.86ZM275.97-15.62L275.97-15.62L275.97-15.62Q275.97-27.71 282.24-35.33L282.24-35.33L282.24-35.33Q288.90-43.58 300.48-43.58L300.48-43.58L300.48-43.58Q308.86-43.58 313.09-39.52L313.09-39.52L313.09-39.52Q317.31-35.46 317.31-26.88L317.31-26.88L317.31-26.88Q317.31-13.82 310.66-6.21L310.66-6.21L310.66-6.21Q304.06 1.28 292.99 1.28L292.99 1.28L292.99 1.28Q284.35 1.28 280.16-3.04L280.16-3.04L280.16-3.04Q275.97-7.36 275.97-15.62ZM292.80-28.86L292.80-28.86L292.80-28.86Q289.92-17.34 289.92-8.26L289.92-8.26L289.92-8.26Q289.92-6.08 290.66-4.67L290.66-4.67L290.66-4.67Q291.39-3.26 293.34-3.26L293.34-3.26L293.34-3.26Q295.30-3.26 296.51-4.19L296.51-4.19L296.51-4.19Q297.73-5.12 298.69-7.23L298.69-7.23L298.69-7.23Q300.22-10.69 301.66-18.02L301.66-18.02L301.66-18.02Q303.10-25.34 303.23-28.38L303.23-28.38L303.23-28.38Q303.36-31.42 303.36-33.73L303.36-33.73L303.36-33.73Q303.36-36.03 302.66-37.50L302.66-37.50L302.66-37.50Q301.95-38.98 300.06-38.98L300.06-38.98L300.06-38.98Q298.18-38.98 296.90-37.82L296.90-37.82L296.90-37.82Q294.53-35.65 292.80-28.86ZM347.20-9.86L347.20-9.86L347.20-9.86Q348.42-8.32 348.42-5.34L348.42-5.34L348.42-5.34Q348.42-2.37 346.14-0.54L346.14-0.54L346.14-0.54Q343.87 1.28 339.90 1.28L339.90 1.28L339.90 1.28Q337.60 1.28 334.02 0.77L334.02 0.77L334.02 0.77Q326.98-0.32 324.96-0.32L324.96-0.32L324.96-0.32Q322.94-0.32 322.11-0.22L322.11-0.22L322.11-0.22Q321.28-0.13 319.94 0L319.94 0L327.68-42.24L341.70-42.24L335.30-7.04L335.30-7.04Q336.13-6.91 336.90-6.91L336.90-6.91L338.50-6.91L338.50-6.91Q343.87-6.91 347.20-9.86Z" fill="none" stroke="#fff" stroke-width="2.1"></path></g></g></g><style>text {
  font-size: 64px;
  font-family: Arial Black;
  dominant-baseline: central;
  text-anchor: middle;
}</style></svg>